<svg id="visual" viewBox="0 0 900 600" width="900" height="600" xmlns="http://www.w3.org/2000/svg" xmlns:xlink="http://www.w3.org/1999/xlink" version="1.1"><rect x="0" y="0" width="900" height="600" fill="#1c292b"></rect><path d="M0 183L21.5 186.2C43 189.3 86 195.7 128.8 193.3C171.7 191 214.3 180 257.2 178.7C300 177.3 343 185.7 385.8 194.7C428.7 203.7 471.3 213.3 514.2 217.5C557 221.7 600 220.3 642.8 211.3C685.7 202.3 728.3 185.7 771.2 175.8C814 166 857 163 878.5 161.5L900 160L900 0L878.5 0C857 0 814 0 771.2 0C728.3 0 685.7 0 642.8 0C600 0 557 0 514.2 0C471.3 0 428.7 0 385.8 0C343 0 300 0 257.2 0C214.3 0 171.7 0 128.8 0C86 0 43 0 21.5 0L0 0Z" fill="#44eaea"></path><path d="M0 191L21.5 192.7C43 194.3 86 197.7 128.8 195.3C171.7 193 214.3 185 257.2 178.7C300 172.3 343 167.7 385.8 158.3C428.7 149 471.3 135 514.2 134.2C557 133.3 600 145.7 642.8 150C685.7 154.3 728.3 150.7 771.2 156.5C814 162.3 857 177.7 878.5 185.3L900 193L900 0L878.5 0C857 0 814 0 771.2 0C728.3 0 685.7 0 642.8 0C600 0 557 0 514.2 0C471.3 0 428.7 0 385.8 0C343 0 300 0 257.2 0C214.3 0 171.7 0 128.8 0C86 0 43 0 21.5 0L0 0Z" fill="#34c4c7"></path><path d="M0 126L21.5 126C43 126 86 126 128.8 123.2C171.7 120.3 214.3 114.7 257.2 113.3C300 112 343 115 385.8 115.3C428.7 115.7 471.3 113.3 514.2 113.3C557 113.3 600 115.7 642.8 121.3C685.7 127 728.3 136 771.2 131.2C814 126.3 857 107.7 878.5 98.3L900 89L900 0L878.5 0C857 0 814 0 771.2 0C728.3 0 685.7 0 642.8 0C600 0 557 0 514.2 0C471.3 0 428.7 0 385.8 0C343 0 300 0 257.2 0C214.3 0 171.7 0 128.8 0C86 0 43 0 21.5 0L0 0Z" fill="#279fa5"></path><path d="M0 99L21.5 100.5C43 102 86 105 128.8 106C171.7 107 214.3 106 257.2 106.5C300 107 343 109 385.8 104C428.7 99 471.3 87 514.2 78.5C557 70 600 65 642.8 70.7C685.7 76.3 728.3 92.7 771.2 100.3C814 108 857 107 878.5 106.5L900 106L900 0L878.5 0C857 0 814 0 771.2 0C728.3 0 685.7 0 642.8 0C600 0 557 0 514.2 0C471.3 0 428.7 0 385.8 0C343 0 300 0 257.2 0C214.3 0 171.7 0 128.8 0C86 0 43 0 21.5 0L0 0Z" fill="#1c7c83"></path><path d="M0 57L21.5 54.3C43 51.7 86 46.3 128.8 44C171.7 41.7 214.3 42.3 257.2 46.8C300 51.3 343 59.7 385.8 63.3C428.7 67 471.3 66 514.2 64C557 62 600 59 642.8 55C685.7 51 728.3 46 771.2 41.2C814 36.3 857 31.7 878.5 29.3L900 27L900 0L878.5 0C857 0 814 0 771.2 0C728.3 0 685.7 0 642.8 0C600 0 557 0 514.2 0C471.3 0 428.7 0 385.8 0C343 0 300 0 257.2 0C214.3 0 171.7 0 128.8 0C86 0 43 0 21.5 0L0 0Z" fill="#125b62"></path></svg>