<svg id="visual" viewBox="0 0 900 600" width="900" height="600" xmlns="http://www.w3.org/2000/svg" xmlns:xlink="http://www.w3.org/1999/xlink" version="1.1"><rect x="0" y="0" width="900" height="600" fill="#1c292b"></rect><path d="M0 206L21.5 201.7C43 197.3 86 188.7 128.8 181.2C171.7 173.7 214.3 167.3 257.2 165.3C300 163.3 343 165.7 385.8 178.7C428.7 191.7 471.3 215.3 514.2 223C557 230.7 600 222.3 642.8 217C685.7 211.7 728.3 209.3 771.2 202.3C814 195.3 857 183.7 878.5 177.8L900 172L900 0L878.5 0C857 0 814 0 771.2 0C728.3 0 685.7 0 642.8 0C600 0 557 0 514.2 0C471.3 0 428.7 0 385.8 0C343 0 300 0 257.2 0C214.3 0 171.7 0 128.8 0C86 0 43 0 21.5 0L0 0Z" fill="#44eaea"></path><path d="M0 176L21.5 177.2C43 178.3 86 180.7 128.8 181.7C171.7 182.7 214.3 182.3 257.2 173.7C300 165 343 148 385.8 146.5C428.7 145 471.3 159 514.2 163.2C557 167.3 600 161.7 642.8 166C685.7 170.3 728.3 184.7 771.2 179.5C814 174.3 857 149.7 878.5 137.3L900 125L900 0L878.5 0C857 0 814 0 771.2 0C728.3 0 685.7 0 642.8 0C600 0 557 0 514.2 0C471.3 0 428.7 0 385.8 0C343 0 300 0 257.2 0C214.3 0 171.7 0 128.8 0C86 0 43 0 21.5 0L0 0Z" fill="#34c4c7"></path><path d="M0 121L21.5 117.3C43 113.7 86 106.3 128.8 111.8C171.7 117.3 214.3 135.7 257.2 141.8C300 148 343 142 385.8 141.7C428.7 141.3 471.3 146.7 514.2 141.3C557 136 600 120 642.8 115.8C685.7 111.7 728.3 119.3 771.2 121.3C814 123.3 857 119.7 878.5 117.8L900 116L900 0L878.5 0C857 0 814 0 771.2 0C728.3 0 685.7 0 642.8 0C600 0 557 0 514.2 0C471.3 0 428.7 0 385.8 0C343 0 300 0 257.2 0C214.3 0 171.7 0 128.8 0C86 0 43 0 21.5 0L0 0Z" fill="#279fa5"></path><path d="M0 76L21.5 82.3C43 88.7 86 101.3 128.8 99.8C171.7 98.3 214.3 82.7 257.2 83.3C300 84 343 101 385.8 101.8C428.7 102.7 471.3 87.3 514.2 77.2C557 67 600 62 642.8 66.2C685.7 70.3 728.3 83.7 771.2 90.3C814 97 857 97 878.5 97L900 97L900 0L878.5 0C857 0 814 0 771.2 0C728.3 0 685.7 0 642.8 0C600 0 557 0 514.2 0C471.3 0 428.7 0 385.8 0C343 0 300 0 257.2 0C214.3 0 171.7 0 128.8 0C86 0 43 0 21.5 0L0 0Z" fill="#1c7c83"></path><path d="M0 64L21.5 59.3C43 54.7 86 45.3 128.8 40.2C171.7 35 214.3 34 257.2 32.8C300 31.7 343 30.3 385.8 36.2C428.7 42 471.3 55 514.2 56.7C557 58.3 600 48.7 642.8 45.3C685.7 42 728.3 45 771.2 43C814 41 857 34 878.5 30.5L900 27L900 0L878.5 0C857 0 814 0 771.2 0C728.3 0 685.7 0 642.8 0C600 0 557 0 514.2 0C471.3 0 428.7 0 385.8 0C343 0 300 0 257.2 0C214.3 0 171.7 0 128.8 0C86 0 43 0 21.5 0L0 0Z" fill="#125b62"></path></svg>